Coordinates
version=1
nRows=21
nColumns=12
inDegrees=yes

Units are S.I. units (second, meters, Newtons, ...)
Angles are in degrees

endheader
time	SC_y	SC_z	SC_x	AC_y	AC_z	AC_x	GH_y	GH_z	GH_yy	EL_x	PS_y
       0.0              -31.49          31.06          63.13          68.65          2.901          14.97          66.51          7.549         -116.0          135.0          101.1
   0.02724              -31.49          31.06          63.13          68.65          2.899          14.97          66.52          7.552         -116.1          135.0          101.1
   0.05447              -31.49          31.05          63.13          68.65          2.897          14.96          66.53          7.556         -116.1          135.0          101.1
   0.08171               -31.5          31.05          63.13          68.65          2.895          14.96          66.54           7.56         -116.1          135.0          101.1
    0.1089               -31.5          31.04          63.13          68.65          2.893          14.96          66.55          7.564         -116.1          135.0          101.2
    0.1362               -31.5          31.04          63.13          68.64           2.89          14.95          66.56          7.568         -116.1          135.0          101.2
    0.1634              -31.51          31.04          63.13          68.64          2.887          14.95          66.58          7.573         -116.1          135.0          101.2
    0.1907              -31.51          31.03          63.13          68.64          2.885          14.94          66.59          7.578         -116.1          135.0          101.2
    0.2179              -31.52          31.03          63.13          68.64          2.881          14.94          66.61          7.583         -116.1          135.0          101.2
    0.2451              -31.52          31.02          63.13          68.64          2.878          14.93          66.62          7.589         -116.1          135.0          101.2
    0.2724              -31.53          31.02          63.13          68.63          2.875          14.93          66.64          7.595         -116.1          135.0          101.2
    0.2996              -31.54          31.01          63.13          68.63          2.871          14.92          66.66          7.602         -116.1          135.0          101.2
    0.3268              -31.54           31.0          63.13          68.63          2.867          14.91          66.68          7.609         -116.1          135.0          101.2
    0.3541              -31.55           31.0          63.13          68.62          2.862          14.91           66.7          7.616         -116.2          135.0          101.2
    0.3813              -31.56          30.99          63.13          68.62          2.857           14.9          66.73          7.625         -116.2          135.0          101.3
    0.4085              -31.57          30.98          63.13          68.62          2.852          14.89          66.75          7.634         -116.2          135.0          101.3
    0.4358              -31.58          30.97          63.13          68.61          2.847          14.88          66.78          7.644         -116.2          135.0          101.3
     0.463              -31.59          30.96          63.13          68.61           2.84          14.87          66.81          7.654         -116.2          135.0          101.3
    0.4903               -31.6          30.95          63.13          68.61          2.834          14.86          66.85          7.666         -116.2          135.0          101.3
    0.5175              -31.61          30.94          63.13           68.6          2.826          14.85          66.88          7.679         -116.3          135.0          101.3
    0.5447              -31.62          30.93          63.14          68.59          2.818          14.83          66.93          7.693         -116.3          134.9          101.4
